<svg width="498" height="127" viewBox="0 0 498 127" fill="none" xmlns="http://www.w3.org/2000/svg">
<rect x="1.5" y="1.5" width="495" height="124" rx="38.5" fill="#FF48D8" fill-opacity="0.12" stroke="#FF48D8" stroke-width="3"/>
<path d="M155.95 83H151.95L151 78.8C149.333 80.7 147.667 82.0167 146 82.75C144.333 83.4833 142.417 83.85 140.25 83.85C137.583 83.85 135.183 83.3667 133.05 82.4C130.95 81.4 129.167 80.05 127.7 78.35C126.233 76.65 125.1 74.6667 124.3 72.4C123.533 70.1333 123.15 67.7167 123.15 65.15C123.15 62.6167 123.533 60.2167 124.3 57.95C125.1 55.6833 126.233 53.7 127.7 52C129.167 50.3 130.95 48.95 133.05 47.95C135.183 46.95 137.583 46.45 140.25 46.45C142.183 46.45 144.017 46.7167 145.75 47.25C147.517 47.75 149.083 48.5167 150.45 49.55C151.817 50.55 152.95 51.8167 153.85 53.35C154.75 54.8833 155.317 56.65 155.55 58.65H149.45C149.283 57.4833 148.917 56.4667 148.35 55.6C147.817 54.7 147.133 53.95 146.3 53.35C145.467 52.75 144.533 52.3 143.5 52C142.467 51.7 141.383 51.55 140.25 51.55C138.35 51.55 136.7 51.9333 135.3 52.7C133.933 53.4667 132.817 54.5 131.95 55.8C131.083 57.0667 130.433 58.5167 130 60.15C129.6 61.7833 129.4 63.45 129.4 65.15C129.4 66.85 129.6 68.5167 130 70.15C130.433 71.7833 131.083 73.25 131.95 74.55C132.817 75.8167 133.933 76.8333 135.3 77.6C136.7 78.3667 138.35 78.75 140.25 78.75C141.85 78.7833 143.267 78.5833 144.5 78.15C145.733 77.6833 146.767 77.0333 147.6 76.2C148.467 75.3333 149.117 74.2833 149.55 73.05C149.983 71.8167 150.217 70.45 150.25 68.95H140.75V64.2H155.95V83ZM179.689 67.8C179.623 66.9 179.423 66.0333 179.089 65.2C178.789 64.3667 178.356 63.65 177.789 63.05C177.256 62.4167 176.589 61.9167 175.789 61.55C175.023 61.15 174.156 60.95 173.189 60.95C172.189 60.95 171.273 61.1333 170.439 61.5C169.639 61.8333 168.939 62.3167 168.339 62.95C167.773 63.55 167.306 64.2667 166.939 65.1C166.606 65.9333 166.423 66.8333 166.389 67.8H179.689ZM166.389 71.55C166.389 72.55 166.523 73.5167 166.789 74.45C167.089 75.3833 167.523 76.2 168.089 76.9C168.656 77.6 169.373 78.1667 170.239 78.6C171.106 79 172.139 79.2 173.339 79.2C175.006 79.2 176.339 78.85 177.339 78.15C178.373 77.4167 179.139 76.3333 179.639 74.9H185.039C184.739 76.3 184.223 77.55 183.489 78.65C182.756 79.75 181.873 80.6833 180.839 81.45C179.806 82.1833 178.639 82.7333 177.339 83.1C176.073 83.5 174.739 83.7 173.339 83.7C171.306 83.7 169.506 83.3667 167.939 82.7C166.373 82.0333 165.039 81.1 163.939 79.9C162.873 78.7 162.056 77.2667 161.489 75.6C160.956 73.9333 160.689 72.1 160.689 70.1C160.689 68.2667 160.973 66.5333 161.539 64.9C162.139 63.2333 162.973 61.7833 164.039 60.55C165.139 59.2833 166.456 58.2833 167.989 57.55C169.523 56.8167 171.256 56.45 173.189 56.45C175.223 56.45 177.039 56.8833 178.639 57.75C180.273 58.5833 181.623 59.7 182.689 61.1C183.756 62.5 184.523 64.1167 184.989 65.95C185.489 67.75 185.623 69.6167 185.389 71.55H166.389ZM189.723 57.15H195.123V60.95L195.223 61.05C196.089 59.6167 197.223 58.5 198.623 57.7C200.023 56.8667 201.573 56.45 203.273 56.45C206.106 56.45 208.339 57.1833 209.973 58.65C211.606 60.1167 212.423 62.3167 212.423 65.25V83H206.723V66.75C206.656 64.7167 206.223 63.25 205.423 62.35C204.623 61.4167 203.373 60.95 201.673 60.95C200.706 60.95 199.839 61.1333 199.073 61.5C198.306 61.8333 197.656 62.3167 197.123 62.95C196.589 63.55 196.173 64.2667 195.873 65.1C195.573 65.9333 195.423 66.8167 195.423 67.75V83H189.723V57.15ZM236.184 67.8C236.117 66.9 235.917 66.0333 235.584 65.2C235.284 64.3667 234.85 63.65 234.284 63.05C233.75 62.4167 233.084 61.9167 232.284 61.55C231.517 61.15 230.65 60.95 229.684 60.95C228.684 60.95 227.767 61.1333 226.934 61.5C226.134 61.8333 225.434 62.3167 224.834 62.95C224.267 63.55 223.8 64.2667 223.434 65.1C223.1 65.9333 222.917 66.8333 222.884 67.8H236.184ZM222.884 71.55C222.884 72.55 223.017 73.5167 223.284 74.45C223.584 75.3833 224.017 76.2 224.584 76.9C225.15 77.6 225.867 78.1667 226.734 78.6C227.6 79 228.634 79.2 229.834 79.2C231.5 79.2 232.834 78.85 233.834 78.15C234.867 77.4167 235.634 76.3333 236.134 74.9H241.534C241.234 76.3 240.717 77.55 239.984 78.65C239.25 79.75 238.367 80.6833 237.334 81.45C236.3 82.1833 235.134 82.7333 233.834 83.1C232.567 83.5 231.234 83.7 229.834 83.7C227.8 83.7 226 83.3667 224.434 82.7C222.867 82.0333 221.534 81.1 220.434 79.9C219.367 78.7 218.55 77.2667 217.984 75.6C217.45 73.9333 217.184 72.1 217.184 70.1C217.184 68.2667 217.467 66.5333 218.034 64.9C218.634 63.2333 219.467 61.7833 220.534 60.55C221.634 59.2833 222.95 58.2833 224.484 57.55C226.017 56.8167 227.75 56.45 229.684 56.45C231.717 56.45 233.534 56.8833 235.134 57.75C236.767 58.5833 238.117 59.7 239.184 61.1C240.25 62.5 241.017 64.1167 241.484 65.95C241.984 67.75 242.117 69.6167 241.884 71.55H222.884ZM246.217 57.15H251.567V62.15H251.667C251.833 61.45 252.15 60.7667 252.617 60.1C253.117 59.4333 253.7 58.8333 254.367 58.3C255.067 57.7333 255.833 57.2833 256.667 56.95C257.5 56.6167 258.35 56.45 259.217 56.45C259.883 56.45 260.333 56.4667 260.567 56.5C260.833 56.5333 261.1 56.5667 261.367 56.6V62.1C260.967 62.0333 260.55 61.9833 260.117 61.95C259.717 61.8833 259.317 61.85 258.917 61.85C257.95 61.85 257.033 62.05 256.167 62.45C255.333 62.8167 254.6 63.3833 253.967 64.15C253.333 64.8833 252.833 65.8 252.467 66.9C252.1 68 251.917 69.2667 251.917 70.7V83H246.217V57.15ZM285.445 77.25C285.445 77.95 285.528 78.45 285.695 78.75C285.895 79.05 286.262 79.2 286.795 79.2C286.962 79.2 287.162 79.2 287.395 79.2C287.628 79.2 287.895 79.1667 288.195 79.1V83.05C287.995 83.1167 287.728 83.1833 287.395 83.25C287.095 83.35 286.778 83.4333 286.445 83.5C286.112 83.5667 285.778 83.6167 285.445 83.65C285.112 83.6833 284.828 83.7 284.595 83.7C283.428 83.7 282.462 83.4667 281.695 83C280.928 82.5333 280.428 81.7167 280.195 80.55C279.062 81.65 277.662 82.45 275.995 82.95C274.362 83.45 272.778 83.7 271.245 83.7C270.078 83.7 268.962 83.5333 267.895 83.2C266.828 82.9 265.878 82.45 265.045 81.85C264.245 81.2167 263.595 80.4333 263.095 79.5C262.628 78.5333 262.395 77.4167 262.395 76.15C262.395 74.55 262.678 73.25 263.245 72.25C263.845 71.25 264.612 70.4667 265.545 69.9C266.512 69.3333 267.578 68.9333 268.745 68.7C269.945 68.4333 271.145 68.2333 272.345 68.1C273.378 67.9 274.362 67.7667 275.295 67.7C276.228 67.6 277.045 67.45 277.745 67.25C278.478 67.05 279.045 66.75 279.445 66.35C279.878 65.9167 280.095 65.2833 280.095 64.45C280.095 63.7167 279.912 63.1167 279.545 62.65C279.212 62.1833 278.778 61.8333 278.245 61.6C277.745 61.3333 277.178 61.1667 276.545 61.1C275.912 61 275.312 60.95 274.745 60.95C273.145 60.95 271.828 61.2833 270.795 61.95C269.762 62.6167 269.178 63.65 269.045 65.05H263.345C263.445 63.3833 263.845 62 264.545 60.9C265.245 59.8 266.128 58.9167 267.195 58.25C268.295 57.5833 269.528 57.1167 270.895 56.85C272.262 56.5833 273.662 56.45 275.095 56.45C276.362 56.45 277.612 56.5833 278.845 56.85C280.078 57.1167 281.178 57.55 282.145 58.15C283.145 58.75 283.945 59.5333 284.545 60.5C285.145 61.4333 285.445 62.5833 285.445 63.95V77.25ZM279.745 70.05C278.878 70.6167 277.812 70.9667 276.545 71.1C275.278 71.2 274.012 71.3667 272.745 71.6C272.145 71.7 271.562 71.85 270.995 72.05C270.428 72.2167 269.928 72.4667 269.495 72.8C269.062 73.1 268.712 73.5167 268.445 74.05C268.212 74.55 268.095 75.1667 268.095 75.9C268.095 76.5333 268.278 77.0667 268.645 77.5C269.012 77.9333 269.445 78.2833 269.945 78.55C270.478 78.7833 271.045 78.95 271.645 79.05C272.278 79.15 272.845 79.2 273.345 79.2C273.978 79.2 274.662 79.1167 275.395 78.95C276.128 78.7833 276.812 78.5 277.445 78.1C278.112 77.7 278.662 77.2 279.095 76.6C279.528 75.9667 279.745 75.2 279.745 74.3V70.05ZM288.978 57.15H293.278V49.4H298.978V57.15H304.128V61.4H298.978V75.2C298.978 75.8 298.995 76.3167 299.028 76.75C299.095 77.1833 299.211 77.55 299.378 77.85C299.578 78.15 299.861 78.3833 300.228 78.55C300.595 78.6833 301.095 78.75 301.728 78.75C302.128 78.75 302.528 78.75 302.928 78.75C303.328 78.7167 303.728 78.65 304.128 78.55V82.95C303.495 83.0167 302.878 83.0833 302.278 83.15C301.678 83.2167 301.061 83.25 300.428 83.25C298.928 83.25 297.711 83.1167 296.778 82.85C295.878 82.55 295.161 82.1333 294.628 81.6C294.128 81.0333 293.778 80.3333 293.578 79.5C293.411 78.6667 293.311 77.7167 293.278 76.65V61.4H288.978V57.15ZM325.979 67.8C325.912 66.9 325.712 66.0333 325.379 65.2C325.079 64.3667 324.645 63.65 324.079 63.05C323.545 62.4167 322.879 61.9167 322.079 61.55C321.312 61.15 320.445 60.95 319.479 60.95C318.479 60.95 317.562 61.1333 316.729 61.5C315.929 61.8333 315.229 62.3167 314.629 62.95C314.062 63.55 313.595 64.2667 313.229 65.1C312.895 65.9333 312.712 66.8333 312.679 67.8H325.979ZM312.679 71.55C312.679 72.55 312.812 73.5167 313.079 74.45C313.379 75.3833 313.812 76.2 314.379 76.9C314.945 77.6 315.662 78.1667 316.529 78.6C317.395 79 318.429 79.2 319.629 79.2C321.295 79.2 322.629 78.85 323.629 78.15C324.662 77.4167 325.429 76.3333 325.929 74.9H331.329C331.029 76.3 330.512 77.55 329.779 78.65C329.045 79.75 328.162 80.6833 327.129 81.45C326.095 82.1833 324.929 82.7333 323.629 83.1C322.362 83.5 321.029 83.7 319.629 83.7C317.595 83.7 315.795 83.3667 314.229 82.7C312.662 82.0333 311.329 81.1 310.229 79.9C309.162 78.7 308.345 77.2667 307.779 75.6C307.245 73.9333 306.979 72.1 306.979 70.1C306.979 68.2667 307.262 66.5333 307.829 64.9C308.429 63.2333 309.262 61.7833 310.329 60.55C311.429 59.2833 312.745 58.2833 314.279 57.55C315.812 56.8167 317.545 56.45 319.479 56.45C321.512 56.45 323.329 56.8833 324.929 57.75C326.562 58.5833 327.912 59.7 328.979 61.1C330.045 62.5 330.812 64.1167 331.279 65.95C331.779 67.75 331.912 69.6167 331.679 71.55H312.679ZM350.478 47.3H357.078L373.378 73.6H373.478V47.3H379.428V83H372.828L356.578 56.75H356.428V83H350.478V47.3ZM403.762 67.8C403.695 66.9 403.495 66.0333 403.162 65.2C402.862 64.3667 402.428 63.65 401.862 63.05C401.328 62.4167 400.662 61.9167 399.862 61.55C399.095 61.15 398.228 60.95 397.262 60.95C396.262 60.95 395.345 61.1333 394.512 61.5C393.712 61.8333 393.012 62.3167 392.412 62.95C391.845 63.55 391.378 64.2667 391.012 65.1C390.678 65.9333 390.495 66.8333 390.462 67.8H403.762ZM390.462 71.55C390.462 72.55 390.595 73.5167 390.862 74.45C391.162 75.3833 391.595 76.2 392.162 76.9C392.728 77.6 393.445 78.1667 394.312 78.6C395.178 79 396.212 79.2 397.412 79.2C399.078 79.2 400.412 78.85 401.412 78.15C402.445 77.4167 403.212 76.3333 403.712 74.9H409.112C408.812 76.3 408.295 77.55 407.562 78.65C406.828 79.75 405.945 80.6833 404.912 81.45C403.878 82.1833 402.712 82.7333 401.412 83.1C400.145 83.5 398.812 83.7 397.412 83.7C395.378 83.7 393.578 83.3667 392.012 82.7C390.445 82.0333 389.112 81.1 388.012 79.9C386.945 78.7 386.128 77.2667 385.562 75.6C385.028 73.9333 384.762 72.1 384.762 70.1C384.762 68.2667 385.045 66.5333 385.612 64.9C386.212 63.2333 387.045 61.7833 388.112 60.55C389.212 59.2833 390.528 58.2833 392.062 57.55C393.595 56.8167 395.328 56.45 397.262 56.45C399.295 56.45 401.112 56.8833 402.712 57.75C404.345 58.5833 405.695 59.7 406.762 61.1C407.828 62.5 408.595 64.1167 409.062 65.95C409.562 67.75 409.695 69.6167 409.462 71.55H390.462ZM411.445 57.15H417.495L422.545 76.45H422.645L427.495 57.15H433.245L437.895 76.45H437.995L443.245 57.15H449.045L440.945 83H435.095L430.295 63.8H430.195L425.445 83H419.445L411.445 57.15Z" fill="#FC56F4"/>
<g clip-path="url(#clip0_2833_5)">
<path d="M58.17 36.0321C58.4624 35.9442 58.7475 36.0285 58.863 36.3207C60.1155 42.491 62.402 47.7757 68.5721 50.3212C69.2561 50.6027 70.5987 50.8967 71.1077 51.1942C71.5642 51.4613 71.3964 51.9471 71.003 52.1766C70.4778 52.4831 69.0937 52.77 68.3772 53.0747C62.429 55.6167 60.0342 60.9408 58.8991 66.9641L58.3758 67.3387L57.8524 66.9641C56.6974 60.9301 54.3351 55.6328 48.3743 53.0747C47.6127 52.7484 46.3784 52.5046 45.7594 52.164C45.4544 51.9955 45.2324 51.6585 45.458 51.352C45.6529 51.0867 47.4738 50.6242 47.9538 50.4324C52.7362 48.5268 55.3782 44.9827 56.8959 40.1946C57.2424 39.1011 57.45 37.312 57.8578 36.3996C57.9282 36.2418 57.9841 36.0859 58.1718 36.0285L58.17 36.0321Z" fill="#FF48D8"/>
<path d="M82.8792 61.034H83.4116C83.7274 61.1434 84.0108 62.8338 84.1407 63.2515C85.3588 67.1756 86.9542 69.7929 90.8125 71.5568C91.3142 71.7863 92.3357 72.0175 92.7038 72.2793C93.857 73.0949 91.2872 73.6793 90.8125 73.8926C86.9993 75.6136 85.3877 78.2577 84.1678 82.1119C84.0414 82.5116 83.7004 84.2523 83.4892 84.3778C83.3196 84.4782 83.0705 84.4513 82.8792 84.4154C82.5869 84.315 82.1628 82.2374 82.0094 81.7731C80.784 78.0587 79.1544 75.5526 75.4783 73.8926C75.0614 73.7044 73.5455 73.2903 73.4084 73.0071C72.9879 72.1502 74.6897 71.9207 75.2527 71.6698C79.214 69.8968 80.8508 67.3602 82.1249 63.3358C82.2566 62.9181 82.5706 61.1398 82.881 61.0322L82.8792 61.034Z" fill="#FF48D8"/>
<path d="M48.7769 90.8546C48.6885 90.765 48.2319 89.114 48.0875 88.768C47.51 87.3823 46.6312 86.0988 45.3715 85.2455C44.9366 84.9515 43.3286 84.3115 43.2005 84.1789C42.4895 83.4385 43.8646 83.1409 44.2364 82.9473C45.8498 82.1048 47.0318 81.0471 47.8241 79.3835C48.0749 78.8565 48.6506 76.795 48.9141 76.6211C49.2389 76.406 49.5313 76.5386 49.7099 76.8631C50.0275 77.4421 50.2116 78.584 50.5527 79.3065C51.0905 80.4448 52.0343 81.6261 53.0883 82.3306C53.5412 82.6336 55.1708 83.2556 55.2972 83.5299C55.6545 84.3061 54.209 84.5696 53.6134 84.9085C52.1155 85.76 51.1663 86.9126 50.4751 88.4668C50.2802 88.9025 49.7388 90.7525 49.6089 90.8851C49.432 91.0662 48.9357 91.0178 48.7769 90.8564V90.8546Z" fill="#FF48D8"/>
</g>
<defs>
<clipPath id="clip0_2833_5">
<rect width="50" height="55" fill="white" transform="translate(43 36)"/>
</clipPath>
</defs>
</svg>
